<svg width="180" height="51" viewBox="0 0 180 51" fill="none" xmlns="http://www.w3.org/2000/svg">
<path d="M67.704 35.28C65.7253 35.28 63.9333 34.8507 62.328 33.992C60.7413 33.1147 59.4907 31.9107 58.576 30.38C57.68 28.8493 57.232 27.1227 57.232 25.2C57.232 23.2773 57.6893 21.5507 58.604 20.02C59.5187 18.4893 60.7693 17.2947 62.356 16.436C63.9613 15.5587 65.7533 15.12 67.732 15.12C69.3373 15.12 70.8027 15.4 72.128 15.96C73.4533 16.52 74.5733 17.332 75.488 18.396L73.136 20.608C71.7173 19.0773 69.972 18.312 67.9 18.312C66.556 18.312 65.352 18.6107 64.288 19.208C63.224 19.7867 62.3933 20.5987 61.796 21.644C61.1987 22.6893 60.9 23.8747 60.9 25.2C60.9 26.5253 61.1987 27.7107 61.796 28.756C62.3933 29.8013 63.224 30.6227 64.288 31.22C65.352 31.7987 66.556 32.088 67.9 32.088C69.972 32.088 71.7173 31.3133 73.136 29.764L75.488 32.004C74.5733 33.068 73.444 33.88 72.1 34.44C70.7747 35 69.3093 35.28 67.704 35.28ZM87.1238 19.88C89.0091 19.88 90.5211 20.4307 91.6598 21.532C92.7984 22.6333 93.3678 24.2667 93.3678 26.432V35H89.8678V26.88C89.8678 25.5733 89.5598 24.5933 88.9438 23.94C88.3278 23.268 87.4504 22.932 86.3118 22.932C85.0238 22.932 84.0064 23.324 83.2598 24.108C82.5131 24.8733 82.1398 25.984 82.1398 27.44V35H78.6398V14.224H82.1398V21.784C82.7184 21.168 83.4278 20.7013 84.2678 20.384C85.1264 20.048 86.0784 19.88 87.1238 19.88ZM101.14 22.232C102.148 20.664 103.921 19.88 106.46 19.88V23.212C106.161 23.156 105.89 23.128 105.648 23.128C104.285 23.128 103.221 23.5293 102.456 24.332C101.69 25.116 101.308 26.2547 101.308 27.748V35H97.8077V20.048H101.14V22.232ZM123.976 20.048L116.976 36.204C116.322 37.828 115.529 38.9667 114.596 39.62C113.662 40.292 112.533 40.628 111.208 40.628C110.461 40.628 109.724 40.5067 108.996 40.264C108.268 40.0213 107.67 39.6853 107.204 39.256L108.604 36.68C108.94 36.9973 109.332 37.2493 109.78 37.436C110.246 37.6227 110.713 37.716 111.18 37.716C111.796 37.716 112.3 37.5573 112.692 37.24C113.102 36.9227 113.476 36.3907 113.812 35.644L114.064 35.056L107.54 20.048H111.18L115.884 31.108L120.616 20.048H123.976ZM130.592 35.196C129.378 35.196 128.193 35.0373 127.036 34.72C125.878 34.4027 124.954 34.0013 124.264 33.516L125.608 30.856C126.28 31.304 127.082 31.668 128.016 31.948C128.968 32.2093 129.901 32.34 130.816 32.34C132.906 32.34 133.952 31.7893 133.952 30.688C133.952 30.1653 133.681 29.8013 133.14 29.596C132.617 29.3907 131.768 29.1947 130.592 29.008C129.36 28.8213 128.352 28.6067 127.568 28.364C126.802 28.1213 126.13 27.7013 125.552 27.104C124.992 26.488 124.712 25.6387 124.712 24.556C124.712 23.1373 125.3 22.008 126.476 21.168C127.67 20.3093 129.276 19.88 131.292 19.88C132.318 19.88 133.345 20.0013 134.372 20.244C135.398 20.468 136.238 20.776 136.892 21.168L135.548 23.828C134.278 23.0813 132.85 22.708 131.264 22.708C130.237 22.708 129.453 22.8667 128.912 23.184C128.389 23.4827 128.128 23.884 128.128 24.388C128.128 24.948 128.408 25.3493 128.968 25.592C129.546 25.816 130.433 26.0307 131.628 26.236C132.822 26.4227 133.802 26.6373 134.568 26.88C135.333 27.1227 135.986 27.5333 136.528 28.112C137.088 28.6907 137.368 29.512 137.368 30.576C137.368 31.976 136.761 33.096 135.548 33.936C134.334 34.776 132.682 35.196 130.592 35.196ZM154.858 20.048V35H151.526V33.096C150.966 33.768 150.266 34.2907 149.426 34.664C148.586 35.0187 147.681 35.196 146.71 35.196C144.713 35.196 143.135 34.6453 141.978 33.544C140.839 32.424 140.27 30.772 140.27 28.588V20.048H143.77V28.112C143.77 29.456 144.069 30.464 144.666 31.136C145.282 31.7893 146.15 32.116 147.27 32.116C148.521 32.116 149.51 31.7333 150.238 30.968C150.985 30.184 151.358 29.064 151.358 27.608V20.048H154.858ZM164.061 35.196C162.847 35.196 161.662 35.0373 160.505 34.72C159.347 34.4027 158.423 34.0013 157.733 33.516L159.077 30.856C159.749 31.304 160.551 31.668 161.485 31.948C162.437 32.2093 163.37 32.34 164.285 32.34C166.375 32.34 167.421 31.7893 167.421 30.688C167.421 30.1653 167.15 29.8013 166.609 29.596C166.086 29.3907 165.237 29.1947 164.061 29.008C162.829 28.8213 161.821 28.6067 161.037 28.364C160.271 28.1213 159.599 27.7013 159.021 27.104C158.461 26.488 158.181 25.6387 158.181 24.556C158.181 23.1373 158.769 22.008 159.945 21.168C161.139 20.3093 162.745 19.88 164.761 19.88C165.787 19.88 166.814 20.0013 167.841 20.244C168.867 20.468 169.707 20.776 170.361 21.168L169.017 23.828C167.747 23.0813 166.319 22.708 164.733 22.708C163.706 22.708 162.922 22.8667 162.381 23.184C161.858 23.4827 161.597 23.884 161.597 24.388C161.597 24.948 161.877 25.3493 162.437 25.592C163.015 25.816 163.902 26.0307 165.097 26.236C166.291 26.4227 167.271 26.6373 168.037 26.88C168.802 27.1227 169.455 27.5333 169.997 28.112C170.557 28.6907 170.837 29.512 170.837 30.576C170.837 31.976 170.23 33.096 169.017 33.936C167.803 34.776 166.151 35.196 164.061 35.196Z" fill="#EDC452"/>
<g filter="url(#filter0_d_442_1241)">
<path d="M36.6364 43.4073H34.0275C33.6389 41.7827 33.0006 40.3281 32.1124 39.0435C30.7062 40.5359 29.0965 41.8205 27.2832 42.8973C27.1148 42.9973 26.9409 43.0926 26.7615 43.1833C26.4272 43.3524 26.0738 43.5053 25.7012 43.6421C24.1209 44.2223 22.1966 44.5125 19.9283 44.5125C17.9093 44.5125 15.9757 44.2136 14.1277 43.6157C13.7259 43.4857 13.3281 43.3416 12.9343 43.1833C12.1021 42.8489 11.288 42.4513 10.4919 41.9905C7.60549 40.3092 5.3019 37.9668 3.58114 34.9631C1.86038 31.9405 1 28.5402 1 24.762C1 22.0795 1.46257 19.5197 2.38771 17.0828C3.33135 14.6459 4.66355 12.5017 6.38431 10.6504C8.12357 8.79912 10.1866 7.34452 12.5735 6.28663C12.6932 6.23397 12.8135 6.18263 12.9343 6.1326C13.3263 5.97026 13.7241 5.82172 14.1277 5.68697C16.0989 5.02885 18.2082 4.69979 20.4557 4.69979C22.3343 4.69979 24.0828 4.95032 25.7012 5.45137C26.095 5.57328 26.481 5.71001 26.8594 5.86158C28.8164 6.64553 30.5674 7.82621 32.1124 9.40364C32.5195 8.59132 32.9173 7.41064 33.3059 5.86158H35.8037L36.2478 20.0015H33.5834C33.1023 17.6023 32.2327 15.4676 30.9745 13.5974C29.7163 11.7272 28.2176 10.301 26.4783 9.31863C24.7576 8.3174 22.9536 7.81679 21.0663 7.81679C18.957 7.81679 17.0604 8.41186 15.3767 9.60199C13.6929 10.7732 12.37 12.5679 11.4078 14.9859C10.4642 17.404 9.99235 20.4171 9.99235 24.0252C9.99235 27.5389 10.3902 30.467 11.1858 32.8095C11.9814 35.1331 12.9621 36.89 14.1277 38.0801C15.3119 39.2702 16.4961 40.0825 17.6803 40.517C18.8644 40.9326 19.9746 41.1404 21.0108 41.1404C23.2866 41.1404 25.3312 40.517 27.1444 39.2702C28.9762 38.0234 30.4749 36.4555 31.6406 34.5664C32.8063 32.6584 33.5834 30.7693 33.972 28.8991H36.6364V43.4073Z" fill="url(#paint0_linear_442_1241)"/>
<path d="M16.7921 48.8246H14.1277V43.6157V43.0912H16.7921V48.8246Z" fill="url(#paint1_linear_442_1241)"/>
<path d="M25.7012 48.8246H23.0368V43.0912H25.7012V43.6421V48.8246Z" fill="url(#paint2_linear_442_1241)"/>
<path d="M16.7921 5.90877H14.1277V5.68697V0.175363H16.7921V5.90877Z" fill="url(#paint3_linear_442_1241)"/>
<path d="M25.7012 5.90877H23.0368V0.175363H25.7012V5.45137V5.90877Z" fill="url(#paint4_linear_442_1241)"/>
<path d="M14.1277 5.68697V0.175363C13.7392 1.72442 13.3414 -0.636948 12.9343 0.175363V6.1326C13.3263 5.97026 13.7241 5.82172 14.1277 5.68697Z" fill="url(#paint5_linear_442_1241)"/>
<path d="M25.7012 0.175363V5.45137C26.095 5.57328 26.481 5.71001 26.8594 5.86158L26.8946 0.175363C26.4876 -0.636948 26.0898 1.72442 25.7012 0.175363Z" fill="url(#paint6_linear_442_1241)"/>
<path d="M25.7012 43.6421V48.8246C26.0898 47.2756 26.4876 49.6369 26.8946 48.8246L26.7615 43.1833C26.4272 43.3524 26.0738 43.5053 25.7012 43.6421Z" fill="url(#paint7_linear_442_1241)"/>
<path d="M14.1277 48.8246V43.6157C13.7259 43.4857 13.3281 43.3416 12.9343 43.1833V48.8246C13.3414 49.6369 13.7392 47.2756 14.1277 48.8246Z" fill="url(#paint8_linear_442_1241)"/>
</g>
<defs>
<filter id="filter0_d_442_1241" x="0" y="0" width="37.6365" height="51" filterUnits="userSpaceOnUse" color-interpolation-filters="sRGB">
<feFlood flood-opacity="0" result="BackgroundImageFix"/>
<feColorMatrix in="SourceAlpha" type="matrix" values="0 0 0 0 0 0 0 0 0 0 0 0 0 0 0 0 0 0 127 0" result="hardAlpha"/>
<feOffset dy="1"/>
<feGaussianBlur stdDeviation="0.5"/>
<feComposite in2="hardAlpha" operator="out"/>
<feColorMatrix type="matrix" values="0 0 0 0 0 0 0 0 0 0 0 0 0 0 0 0 0 0 0.4 0"/>
<feBlend mode="normal" in2="BackgroundImageFix" result="effect1_dropShadow_442_1241"/>
<feBlend mode="normal" in="SourceGraphic" in2="effect1_dropShadow_442_1241" result="shape"/>
</filter>
<linearGradient id="paint0_linear_442_1241" x1="36.6364" y1="15.095" x2="8.895" y2="42.5725" gradientUnits="userSpaceOnUse">
<stop stop-color="#EDC452"/>
<stop offset="0.50165" stop-color="#F3E0AA"/>
<stop offset="1" stop-color="#EDC452"/>
</linearGradient>
<linearGradient id="paint1_linear_442_1241" x1="36.6364" y1="15.095" x2="8.895" y2="42.5725" gradientUnits="userSpaceOnUse">
<stop stop-color="#EDC452"/>
<stop offset="0.50165" stop-color="#F3E0AA"/>
<stop offset="1" stop-color="#EDC452"/>
</linearGradient>
<linearGradient id="paint2_linear_442_1241" x1="36.6364" y1="15.095" x2="8.895" y2="42.5725" gradientUnits="userSpaceOnUse">
<stop stop-color="#EDC452"/>
<stop offset="0.50165" stop-color="#F3E0AA"/>
<stop offset="1" stop-color="#EDC452"/>
</linearGradient>
<linearGradient id="paint3_linear_442_1241" x1="36.6364" y1="15.095" x2="8.895" y2="42.5725" gradientUnits="userSpaceOnUse">
<stop stop-color="#EDC452"/>
<stop offset="0.50165" stop-color="#F3E0AA"/>
<stop offset="1" stop-color="#EDC452"/>
</linearGradient>
<linearGradient id="paint4_linear_442_1241" x1="36.6364" y1="15.095" x2="8.895" y2="42.5725" gradientUnits="userSpaceOnUse">
<stop stop-color="#EDC452"/>
<stop offset="0.50165" stop-color="#F3E0AA"/>
<stop offset="1" stop-color="#EDC452"/>
</linearGradient>
<linearGradient id="paint5_linear_442_1241" x1="36.6364" y1="15.095" x2="8.895" y2="42.5725" gradientUnits="userSpaceOnUse">
<stop stop-color="#EDC452"/>
<stop offset="0.50165" stop-color="#F3E0AA"/>
<stop offset="1" stop-color="#EDC452"/>
</linearGradient>
<linearGradient id="paint6_linear_442_1241" x1="36.6364" y1="15.095" x2="8.895" y2="42.5725" gradientUnits="userSpaceOnUse">
<stop stop-color="#EDC452"/>
<stop offset="0.50165" stop-color="#F3E0AA"/>
<stop offset="1" stop-color="#EDC452"/>
</linearGradient>
<linearGradient id="paint7_linear_442_1241" x1="36.6364" y1="15.095" x2="8.895" y2="42.5725" gradientUnits="userSpaceOnUse">
<stop stop-color="#EDC452"/>
<stop offset="0.50165" stop-color="#F3E0AA"/>
<stop offset="1" stop-color="#EDC452"/>
</linearGradient>
<linearGradient id="paint8_linear_442_1241" x1="36.6364" y1="15.095" x2="8.895" y2="42.5725" gradientUnits="userSpaceOnUse">
<stop stop-color="#EDC452"/>
<stop offset="0.50165" stop-color="#F3E0AA"/>
<stop offset="1" stop-color="#EDC452"/>
</linearGradient>
</defs>
</svg>
